<svg width="45" height="38" viewBox="0 0 45 38" fill="none" xmlns="http://www.w3.org/2000/svg">
<path d="M43.9048 16.7465L37.5968 13.1248L43.9048 9.50305C44.2202 9.34893 44.299 9.00217 44.1413 8.73247C44.1019 8.65541 44.0231 8.57835 43.9442 8.53982L36.8083 4.45573L29.6329 0.333108C29.4357 0.21752 29.2386 0.21752 29.0415 0.333108L22.2209 4.26308L15.361 0.333108C15.2033 0.21752 14.9667 0.21752 14.7696 0.333108L7.63362 4.45573L0.53708 8.53982C0.45823 8.57835 0.379379 8.65541 0.339954 8.73247C0.182253 9.00217 0.261104 9.34893 0.53708 9.50305L6.84511 13.1248L0.497655 16.7465C0.221678 16.9007 0.142828 17.2474 0.300529 17.5171C0.339954 17.5942 0.418804 17.6712 0.497655 17.7098L7.35764 21.6397V29.2685C7.35764 29.4612 7.47591 29.6538 7.63362 29.7309L21.8267 37.7449C21.8661 37.7449 21.8661 37.7835 21.9055 37.7835C21.9055 37.7835 21.945 37.7835 21.945 37.822C22.0238 37.8605 22.0632 37.8605 22.1421 37.8605C22.2209 37.8605 22.2604 37.8605 22.3392 37.822C22.3392 37.822 22.3786 37.822 22.3786 37.7835C22.4181 37.7835 22.4181 37.7835 22.4575 37.7449L36.6111 29.7309C36.8083 29.6153 36.8871 29.4226 36.8871 29.2685V21.7168L43.9048 17.7098C43.9836 17.6712 44.0625 17.5942 44.1019 17.5171C44.2597 17.2474 44.1808 16.9007 43.9048 16.7465ZM29.3071 1.71227L36.0262 5.45711L42.2537 8.86758L39.3733 10.5229L36.4929 12.1782L29.7134 8.45944L23.5463 5.02284L26.5221 3.32921L29.3071 1.71227ZM22.8123 6.28186L28.9609 9.70612L35.1597 13.1248L28.9609 16.5839L27.2213 17.5911L22.8123 15.1944V6.28186ZM2.37045 8.94516L8.42323 5.57867L15.1785 1.75345L18.0954 3.38814L21.0123 5.02284L14.809 8.53982L8.20427 12.2145L5.28736 10.5799L2.37045 8.94516ZM21.4836 6.28186V15.1944L17.3628 17.5911L15.5754 16.5839L9.7255 13.1248L15.5754 9.71752L21.4836 6.28186ZM8.41924 20.6364L2.34229 17.2457L5.2612 15.609L8.1801 13.9723L14.809 17.6712L21.0064 21.1823L17.9903 22.9161L15.1686 24.4557L8.45867 20.6749L8.41924 20.6364ZM21.5507 36.0852L15.1212 32.4817L8.6916 28.8782V25.8181V22.4854L14.7696 25.9165C14.9667 26.0321 15.1638 26.0321 15.361 25.9165L21.5507 22.3718V36.0852ZM22.2974 20.4471L20.5209 19.464L18.6679 18.4044L22.2209 16.4383L25.8504 18.4809L24.0739 19.464L22.2974 20.4471ZM35.7833 28.7829L29.3256 32.4817L22.8679 36.1805V29.2878V22.3718L29.081 25.8779C29.2387 25.9935 29.4753 25.9935 29.6724 25.8779L35.7833 22.3718V28.7829ZM36.1011 20.7149L35.904 20.8305L29.3871 24.4989L26.429 22.8229L23.6061 21.293L29.7105 17.6913L36.3573 13.8768L39.3733 15.6107L42.2736 17.2287L36.1011 20.7149Z" fill="#366AE9"/>
</svg>
