<svg width="25" height="27" viewBox="0 0 25 27" fill="none" xmlns="http://www.w3.org/2000/svg">
<path d="M4.38367 4.38342C4.0616 4.35153 3.76991 4.54002 3.73255 4.80103L0.899165 24.5477C0.879907 24.6828 0.932534 24.8177 1.04393 24.9192C1.15533 25.0205 1.31503 25.0785 1.48254 25.0785H4.05861C4.383 25.0785 4.64564 24.8656 4.64564 24.6027C4.64564 24.3399 4.38267 24.1267 4.05828 24.1267H2.14196L4.89898 4.91108C4.93666 4.64994 4.7059 4.41369 4.38367 4.38342Z" fill="black"/>
<path d="M24.1472 24.5904H24.0026C23.7395 24.5904 23.6093 24.6777 23.6093 24.8039C23.6093 24.8685 23.5819 24.9415 23.671 24.9831V26.503H4.46411L2.29758 25.0477H3.96018C4.22324 25.0477 4.43642 24.9454 4.43642 24.8191C4.43642 24.6929 4.22324 24.5906 3.96018 24.5906H1.37178C1.1933 24.5906 1.02982 24.6384 0.948085 24.7146C0.866348 24.7908 0.88036 24.8824 0.98395 24.9521L3.8309 26.8647C3.92064 26.9248 4.0646 26.9605 4.21857 26.9605H24.1469C24.4099 26.9605 24.6231 26.8582 24.6235 26.7316V24.819C24.6236 24.6927 24.4103 24.5904 24.1472 24.5904Z" fill="black"/>
<path d="M24.1493 4.40005H4.31594C4.00317 4.40005 3.74933 4.5944 3.74933 4.83387V26.5266C3.74933 26.7661 4.00317 26.9605 4.31594 26.9605H24.1493C24.4624 26.9605 24.7159 26.7661 24.7159 26.5266V4.83387C24.7159 4.5944 24.4621 4.40005 24.1493 4.40005ZM23.5826 26.0927H4.88255V5.26768H23.5826V26.0927Z" fill="black"/>
<path d="M14.516 0C11.7038 0 9.41596 2.22057 9.41596 4.95L9.41595 10.7636C9.41595 11.0672 9.66979 11.3135 9.98257 11.3135C10.2953 11.3135 10.5492 11.0672 10.5492 10.7636L10.5492 4.95C10.5492 2.82708 12.3285 1.10005 14.5158 1.10005C16.7031 1.10005 18.4824 2.82708 18.4824 4.95V10.7636C18.4824 11.0672 18.7363 11.3135 19.049 11.3135C19.3621 11.3135 19.6156 11.0672 19.6156 10.7636V4.95C19.616 2.22057 17.3281 0 14.516 0Z" fill="black"/>
</svg>
