<svg width="48" height="39" viewBox="0 0 48 39" fill="none" xmlns="http://www.w3.org/2000/svg">
<path d="M46.921 11.8505L39.5653 1.4388C39.3675 1.15879 39.0498 0.992798 38.7113 0.992798H9.28868C8.95026 0.992798 8.63258 1.15868 8.43469 1.4388L1.07902 11.8505C0.848076 12.1774 0.815971 12.6088 0.995971 12.9675C1.0385 13.0523 1.09186 13.1289 1.15281 13.1976L23.2404 38.1182C23.44 38.3434 23.7237 38.4718 24.0213 38.4718C24.3189 38.4718 24.6025 38.3433 24.8021 38.1182L46.8651 13.175C46.918 13.1119 46.9658 13.0434 47.0039 12.9675C47.184 12.6087 47.1519 12.1773 46.921 11.8505ZM44.011 11.4045H33.4117L38.7113 3.90301L44.011 11.4045ZM29.9406 13.5519L24.0183 33.6739L18.0617 13.5519H29.9406ZM18.7003 11.4045L24 3.90301L29.2997 11.4045H18.7003ZM26.056 3.14016H36.6553L31.3557 10.6418L26.056 3.14016ZM16.6443 10.6416L11.3447 3.14016H21.9441L16.6443 10.6416ZM15.8627 13.5519L21.6588 33.1317L4.30375 13.5519H15.8627ZM32.1387 13.5519H43.7388L26.3721 33.1449L32.1387 13.5519ZM9.28868 3.90301L14.5884 11.4045H3.98901L9.28868 3.90301Z" fill="white"/>
</svg>
