<svg width="21" height="22" viewBox="0 0 21 22" fill="none" xmlns="http://www.w3.org/2000/svg">
<path d="M14.8999 0.843079H6.10017C2.73652 0.843079 0 3.5796 0 6.94325V15.7429C0 19.1066 2.73652 21.8431 6.10017 21.8431H14.8998C18.2635 21.8431 21 19.1066 21 15.7429V6.94325C21 3.5796 18.2635 0.843079 14.8999 0.843079ZM19.5874 15.7429C19.5874 18.2019 17.3588 20.5281 14.8999 20.5281C12.4409 20.5281 8.55918 20.5281 6.10017 20.5281C3.64116 20.5281 1.43299 18.2019 1.43299 15.7429V6.94325C1.43299 4.48424 3.64116 2.36514 6.10017 2.36514H14.8998C17.3588 2.36514 19.5874 4.48424 19.5874 6.94325C19.5874 9.40226 19.5874 13.2839 19.5874 15.7429Z" fill="#2DABF6"/>
<path d="M10.5 5.68292C7.37896 5.68292 4.83984 8.22204 4.83984 11.3431C4.83984 14.4641 7.37896 17.0032 10.5 17.0032C13.621 17.0032 16.1602 14.4641 16.1602 11.3431C16.1602 8.22204 13.621 5.68292 10.5 5.68292ZM10.5 15.6618C8.28364 15.6618 6.23963 13.5594 6.23963 11.3431C6.23963 9.12672 8.28364 7.00237 10.5 7.00237C12.7164 7.00237 14.7523 9.12672 14.7523 11.3431C14.7523 13.5594 12.7164 15.6618 10.5 15.6618Z" fill="#2DABF6"/>
<path d="M16.2422 6.4212C16.6952 6.4212 17.0625 6.05394 17.0625 5.60089C17.0625 5.14785 16.6952 4.78058 16.2422 4.78058C15.7891 4.78058 15.4219 5.14785 15.4219 5.60089C15.4219 6.05394 15.7891 6.4212 16.2422 6.4212Z" fill="#2DABF6"/>
</svg>
