<svg width="42" height="48" viewBox="0 0 42 48" fill="none" xmlns="http://www.w3.org/2000/svg">
<path d="M21.4707 0.825203C10.3644 0.565151 1.14999 9.35789 0.890078 20.4644C0.889527 20.7093 0.977543 20.9461 1.13801 21.131L20.3609 47.0757H20.5097L20.5868 47.1308L20.6695 47.1804H20.9119H20.978H21.4133H21.4518H21.5014H21.54L21.6281 47.1198L21.7659 47.0041C21.8 46.966 21.8314 46.9255 21.8595 46.8828L40.8621 21.131C41.0226 20.9461 41.1106 20.7093 41.11 20.4644C40.8585 9.72387 32.2114 1.07658 21.4707 0.825203ZM2.96705 20.1614C3.17463 18.3252 4.68632 16.9125 6.5323 16.8296C8.60542 16.7365 10.3615 18.3417 10.4546 20.4148C10.4546 20.4313 10.4546 20.4644 10.4546 20.4644C10.4546 20.6027 10.4827 20.7395 10.5372 20.8666L17.5674 39.9573L2.96705 20.1614ZM19.9918 20.4589C19.9892 20.501 19.9892 20.5435 19.9918 20.5856V40.635L12.4933 20.3046C12.6419 18.4231 14.1631 16.9438 16.048 16.8478C18.1206 16.7423 19.8863 18.3367 19.9918 20.4093C19.9918 20.4258 19.9918 20.4589 19.9918 20.4589ZM21.0056 17.3074C20.7914 16.9956 20.5472 16.7053 20.2766 16.4409C20.0381 16.208 19.7797 15.9961 19.5046 15.8078C16.8683 14.0027 13.2679 14.6767 11.463 17.3129C9.69522 14.7352 6.2009 14.0256 3.56773 15.7096C5.25353 9.53833 10.0748 4.71703 16.2461 3.03124C25.8797 0.399587 35.8227 6.07597 38.4544 15.7096C37.5227 15.1106 36.438 14.7931 35.3305 14.795C33.4218 14.7957 31.6357 15.7352 30.5537 17.3074C30.1509 16.7206 29.6435 16.2132 29.0567 15.8104C26.42 14.0005 22.8153 14.6708 21.0056 17.3074ZM22.0248 20.4809C22.0737 18.5482 23.5814 16.9679 25.5098 16.8283C27.5796 16.6785 29.379 18.2348 29.5289 20.3046L22.0248 40.635V20.4809ZM24.4435 39.9573L31.5123 20.8115C31.5572 20.6881 31.5778 20.5571 31.5729 20.4258C31.652 18.5778 33.0642 17.0622 34.902 16.853C36.9639 16.6183 38.8256 18.0995 39.0605 20.1614L24.4435 39.9573Z" fill="white"/>
</svg>
