<svg width="39" height="34" viewBox="0 0 39 34" fill="none" xmlns="http://www.w3.org/2000/svg">
<path d="M38.1929 25.219C38.1929 26.3603 37.9646 27.4331 37.5081 28.4374C37.0516 29.4417 36.4353 30.3319 35.6592 31.108C34.8832 31.8384 33.9702 32.4319 32.9202 32.8884C31.9159 33.2992 30.8431 33.5047 29.7018 33.5047C28.5605 33.5047 27.4649 33.3221 26.4149 32.9569C25.4106 32.546 24.4976 31.9525 23.6759 31.1765C22.8998 30.4004 22.2835 29.4417 21.827 28.3005C21.3705 27.1135 21.1422 25.7668 21.1422 24.2603C21.1422 22.2974 21.2564 20.3572 21.4846 18.4398C21.7585 16.4769 22.2835 14.5139 23.0596 12.5509C23.8356 10.5879 24.9313 8.60205 26.3464 6.59341C27.8073 4.53912 29.7474 2.41635 32.1669 0.225098L35.1799 1.59463C34.3125 3.28371 33.5365 5.01845 32.8517 6.79884C32.2582 8.30532 31.7104 9.97159 31.2083 11.7976C30.7518 13.578 30.5235 15.2899 30.5235 16.9334C31.4822 16.979 32.418 17.2073 33.331 17.6181C34.2441 17.9833 35.0658 18.5083 35.7962 19.1931C36.5266 19.8778 37.0973 20.7452 37.5081 21.7952C37.9646 22.7995 38.1929 23.9408 38.1929 25.219Z" fill="#2DABF6"/>
<path d="M17.1929 25.219C17.1929 26.3603 16.9646 27.4331 16.5081 28.4374C16.0516 29.4417 15.4353 30.3319 14.6592 31.108C13.8832 31.8384 12.9702 32.4319 11.9202 32.8884C10.9159 33.2992 9.84307 33.5047 8.70179 33.5047C7.56052 33.5047 6.46489 33.3221 5.41492 32.9569C4.4106 32.546 3.49758 31.9525 2.67586 31.1765C1.89979 30.4004 1.28351 29.4417 0.826996 28.3005C0.370486 27.1135 0.142231 25.7668 0.142231 24.2603C0.142231 22.2974 0.256359 20.3572 0.484613 18.4398C0.758519 16.4769 1.28351 14.5139 2.05957 12.5509C2.83564 10.5879 3.93126 8.60205 5.34645 6.59341C6.80728 4.53912 8.74744 2.41635 11.1669 0.225098L14.1799 1.59463C13.3125 3.28371 12.5365 5.01845 11.8517 6.79884C11.2582 8.30532 10.7104 9.97159 10.2083 11.7976C9.75177 13.578 9.52351 15.2899 9.52351 16.9334C10.4822 16.979 11.418 17.2073 12.331 17.6181C13.2441 17.9833 14.0658 18.5083 14.7962 19.1931C15.5266 19.8778 16.0973 20.7452 16.5081 21.7952C16.9646 22.7995 17.1929 23.9408 17.1929 25.219Z" fill="#2DABF6"/>
</svg>
