<svg width="30" height="39" viewBox="0 0 30 39" fill="none" xmlns="http://www.w3.org/2000/svg">
<path d="M0.266919 23.4254V21.2155H18.4202C18.7359 21.2155 19.1042 21.1979 19.5252 21.1629C19.9461 21.1278 20.3495 21.0752 20.7354 21.005C22.9278 20.5841 24.5853 19.5229 25.7078 17.8216C26.8479 16.1028 27.4179 14.1822 27.4179 12.0599C27.4179 10.6392 27.1636 9.30624 26.6549 8.06094C26.1463 6.79811 25.3921 5.72821 24.3923 4.85124C23.4101 3.97427 22.1911 3.39547 20.7354 3.11484C20.3495 3.02714 19.9461 2.97452 19.5252 2.95698C19.1042 2.92191 18.7359 2.90437 18.4202 2.90437H6.68633V0.694405H18.4202C18.7885 0.694405 19.1656 0.711944 19.5515 0.747022C19.9373 0.764562 20.367 0.817181 20.8406 0.904878C22.6647 1.22059 24.2433 1.88708 25.5762 2.90437C26.9268 3.92165 27.9616 5.21956 28.6807 6.79811C29.4174 8.35911 29.7857 10.1131 29.7857 12.0599C29.7857 14.8662 29.0052 17.3042 27.4442 19.3738C25.8832 21.426 23.682 22.7063 20.8406 23.215C20.367 23.2851 19.9373 23.3377 19.5515 23.3728C19.1656 23.4079 18.7885 23.4254 18.4202 23.4254H0.266919ZM0.266919 31.3182V29.1082H19.2094V31.3182H0.266919ZM4.47637 38.5795V0.694405H6.68633V38.5795H4.47637Z" fill="white"/>
</svg>
